<svg xmlns="http://www.w3.org/2000/svg" viewBox="0 0 720 480">
  <defs>
    <linearGradient id="bg" x1="0" x2="1" y1="0" y2="1">
      <stop offset="0" stop-color="#252b2a"/>
      <stop offset="1" stop-color="#c46a3a"/>
    </linearGradient>
  </defs>
  <rect width="720" height="480" fill="url(#bg)"/>
  <path d="M0 348c120-45 228-38 338-14 130 28 230 26 382-32v178H0z" fill="#111" opacity=".18"/>
  <g transform="translate(244 52)">
    <path d="M72 72h124l62 78-47 42-25-35v84H82v-84l-25 35-47-42z" fill="#f2efe7" stroke="#111" stroke-width="9" stroke-linejoin="round"/>
    <rect x="82" y="176" width="104" height="82" rx="22" fill="#1f2525" stroke="#111" stroke-width="9"/>
    <path d="M91 248h55l-8 124H74z" fill="#5f6b39" stroke="#111" stroke-width="9"/>
    <path d="M146 248h55l17 124h-72z" fill="#4f5b31" stroke="#111" stroke-width="9"/>
    <path d="M56 386h91v24H30c0-14 11-24 26-24z" fill="#f2efe7" stroke="#111" stroke-width="8"/>
    <path d="M146 386h91c15 0 26 10 26 24H146z" fill="#f2efe7" stroke="#111" stroke-width="8"/>
    <path d="M92 112h84" stroke="#c46a3a" stroke-width="12" stroke-linecap="round"/>
  </g>
  <text x="54" y="418" fill="#fff7ed" font-family="Georgia, serif" font-size="46" font-weight="700">Streetwear</text>
  <text x="54" y="450" fill="#f5d9c7" font-family="Georgia, serif" font-size="22">oversized, cargos, sneakers</text>
</svg>
